<svg width="470" height="531" viewBox="0 0 470 531" fill="none" xmlns="http://www.w3.org/2000/svg">
<path fill-rule="evenodd" clip-rule="evenodd" d="M1 1L44.046 478.147L235.25 530L426.455 477.15L469 1H1ZM89 99.5L94 158H317L311.5 217.5H98L104 277H306L300 351.5L234.5 369.5L170.5 351.5L165 305H106.5L114.5 397.5L234.5 431L355 398L381.5 99L89 99.5Z" fill="#214CE5"/>
<path d="M44.046 478.147L43.548 478.192L43.5793 478.539L43.9151 478.63L44.046 478.147ZM1 1V0.5H0.452862L0.502022 1.04493L1 1ZM235.25 530L235.119 530.483L235.252 530.518L235.383 530.482L235.25 530ZM426.455 477.15L426.588 477.632L426.922 477.539L426.953 477.194L426.455 477.15ZM469 1L469.498 1.0445L469.547 0.5H469V1ZM94 158L93.5018 158.043L93.5409 158.5H94V158ZM89 99.5L88.9991 99L88.4555 99.0009L88.5018 99.5426L89 99.5ZM317 158L317.498 158.046L317.548 157.5H317V158ZM311.5 217.5V218H311.956L311.998 217.546L311.5 217.5ZM98 217.5V217H97.447L97.5025 217.55L98 217.5ZM104 277L103.503 277.05L103.548 277.5H104V277ZM306 277L306.498 277.04L306.542 276.5H306V277ZM300 351.5L300.132 351.982L300.47 351.889L300.498 351.54L300 351.5ZM234.5 369.5L234.365 369.981L234.498 370.019L234.632 369.982L234.5 369.5ZM170.5 351.5L170.003 351.559L170.043 351.891L170.365 351.981L170.5 351.5ZM165 305L165.497 304.941L165.444 304.5H165V305ZM106.5 305V304.5H105.955L106.002 305.043L106.5 305ZM114.5 397.5L114.002 397.543L114.032 397.888L114.366 397.982L114.5 397.5ZM234.5 431L234.366 431.482L234.499 431.519L234.632 431.482L234.5 431ZM355 398L355.132 398.482L355.467 398.39L355.498 398.044L355 398ZM381.5 99L381.998 99.0441L382.046 98.4991L381.499 98.5L381.5 99ZM44.544 478.102L1.49798 0.955075L0.502022 1.04493L43.548 478.192L44.544 478.102ZM235.381 529.517L44.1769 477.664L43.9151 478.63L235.119 530.483L235.381 529.517ZM426.321 476.668L235.117 529.518L235.383 530.482L426.588 477.632L426.321 476.668ZM468.502 0.955501L425.957 477.105L426.953 477.194L469.498 1.0445L468.502 0.955501ZM1 1.5H469V0.5H1V1.5ZM94.4982 157.957L89.4982 99.4574L88.5018 99.5426L93.5018 158.043L94.4982 157.957ZM317 157.5H94V158.5H317V157.5ZM311.998 217.546L317.498 158.046L316.502 157.954L311.002 217.454L311.998 217.546ZM98 218H311.5V217H98V218ZM104.497 276.95L98.4975 217.45L97.5025 217.55L103.503 277.05L104.497 276.95ZM306 276.5H104V277.5H306V276.5ZM300.498 351.54L306.498 277.04L305.502 276.96L299.502 351.46L300.498 351.54ZM234.632 369.982L300.132 351.982L299.868 351.018L234.368 369.018L234.632 369.982ZM170.365 351.981L234.365 369.981L234.635 369.019L170.635 351.019L170.365 351.981ZM164.503 305.059L170.003 351.559L170.997 351.441L165.497 304.941L164.503 305.059ZM106.5 305.5H165V304.5H106.5V305.5ZM114.998 397.457L106.998 304.957L106.002 305.043L114.002 397.543L114.998 397.457ZM234.634 430.518L114.634 397.018L114.366 397.982L234.366 431.482L234.634 430.518ZM354.868 397.518L234.368 430.518L234.632 431.482L355.132 398.482L354.868 397.518ZM381.002 98.9559L354.502 397.956L355.498 398.044L381.998 99.0441L381.002 98.9559ZM89.0009 100L381.501 99.5L381.499 98.5L88.9991 99L89.0009 100Z" fill="#214CE5"/>
<path d="M235 218V158H317.5L312.5 218H235Z" fill="#2465F1" stroke="#2465F1"/>
<path d="M235 368.5V274H307L301 350L235 368.5Z" fill="#2465F1" stroke="#2465F1"/>
<path d="M235 39V99H382L355 397L235 431.5V491.5L389.5 448L426.5 39H235Z" fill="#2465F1" stroke="#2465F1"/>
</svg>
