<svg width="573" height="573" viewBox="0 0 573 573" fill="none" xmlns="http://www.w3.org/2000/svg">
<path fill-rule="evenodd" clip-rule="evenodd" d="M312.776 11.7157C297.155 -3.90524 271.828 -3.90525 256.207 11.7157L11.7157 256.207C-3.90524 271.828 -3.90524 297.155 11.7157 312.776L260.063 561.123C275.684 576.744 301.01 576.744 316.631 561.123L561.123 316.631C576.744 301.01 576.744 275.684 561.123 260.063L312.776 11.7157ZM274.406 213.016C256.948 207.002 244.406 190.431 244.406 170.931C244.406 164.666 245.701 158.703 248.037 153.295L182.406 86.4315L208.097 61.2135L274.465 128.827C278.993 127.274 283.851 126.431 288.906 126.431C313.483 126.431 333.406 146.355 333.406 170.931C333.406 176.278 332.463 181.405 330.734 186.153L391.85 248.416C396.83 246.489 402.245 245.431 407.906 245.431C432.483 245.431 452.406 265.355 452.406 289.931C452.406 314.508 432.483 334.431 407.906 334.431C383.329 334.431 363.406 314.508 363.406 289.931C363.406 284.269 364.464 278.854 366.392 273.872L307.406 213.779V369.447C322.748 376.469 333.406 391.956 333.406 409.931C333.406 434.508 313.483 454.431 288.906 454.431C264.329 454.431 244.406 434.508 244.406 409.931C244.406 390.432 256.948 373.861 274.406 367.847V213.016Z" fill="#F05033"/>
</svg>
