<svg width="982" height="1118" viewBox="0 0 982 1118" fill="none" xmlns="http://www.w3.org/2000/svg">
<path fill-rule="evenodd" clip-rule="evenodd" d="M1 1L90 1000L489.5 1116.5L898.5 1000L981 1H1ZM798.5 330L817.5 185H182L214 585.5H628.5L630 727L497.5 765.5L357.5 721.5V626.5H220L235.5 830.5L497.5 901.5L757.5 830.5L787 439H350.5L336.5 330H798.5Z" fill="#D92D00"/>
<path d="M90 1000L89.502 1000.04L89.5323 1000.38L89.86 1000.48L90 1000ZM1 1V0.5H0.453475L0.501972 1.04437L1 1ZM489.5 1116.5L489.36 1116.98L489.498 1117.02L489.637 1116.98L489.5 1116.5ZM898.5 1000L898.637 1000.48L898.97 1000.39L898.998 1000.04L898.5 1000ZM981 1L981.498 1.04115L981.543 0.5H981V1ZM817.5 185L817.996 185.065L818.07 184.5H817.5V185ZM798.5 330V330.5H798.939L798.996 330.065L798.5 330ZM182 185V184.5H181.458L181.502 185.04L182 185ZM214 585.5L213.502 585.54L213.538 586H214V585.5ZM628.5 585.5L629 585.495L628.995 585H628.5V585.5ZM630 727L630.14 727.48L630.504 727.374L630.5 726.995L630 727ZM497.5 765.5L497.35 765.977L497.494 766.022L497.64 765.98L497.5 765.5ZM357.5 721.5H357V721.867L357.35 721.977L357.5 721.5ZM357.5 626.5H358V626H357.5V626.5ZM220 626.5V626H219.461L219.501 626.538L220 626.5ZM235.5 830.5L235.001 830.538L235.028 830.89L235.369 830.983L235.5 830.5ZM497.5 901.5L497.369 901.983L497.501 902.018L497.632 901.982L497.5 901.5ZM757.5 830.5L757.632 830.982L757.972 830.889L757.999 830.538L757.5 830.5ZM787 439L787.499 439.038L787.539 438.5H787V439ZM350.5 439L350.004 439.064L350.06 439.5H350.5V439ZM336.5 330V329.5H335.932L336.004 330.064L336.5 330ZM90.498 999.956L1.49803 0.955631L0.501972 1.04437L89.502 1000.04L90.498 999.956ZM489.64 1116.02L90.14 999.52L89.86 1000.48L489.36 1116.98L489.64 1116.02ZM898.363 999.519L489.363 1116.02L489.637 1116.98L898.637 1000.48L898.363 999.519ZM980.502 0.958849L898.002 999.959L898.998 1000.04L981.498 1.04115L980.502 0.958849ZM1 1.5H981V0.5H1V1.5ZM817.004 184.935L798.004 329.935L798.996 330.065L817.996 185.065L817.004 184.935ZM182 185.5H817.5V184.5H182V185.5ZM214.498 585.46L182.498 184.96L181.502 185.04L213.502 585.54L214.498 585.46ZM628.5 585H214V586H628.5V585ZM630.5 726.995L629 585.495L628 585.505L629.5 727.005L630.5 726.995ZM497.64 765.98L630.14 727.48L629.86 726.52L497.36 765.02L497.64 765.98ZM357.35 721.977L497.35 765.977L497.65 765.023L357.65 721.023L357.35 721.977ZM357 626.5V721.5H358V626.5H357ZM220 627H357.5V626H220V627ZM235.999 830.462L220.499 626.462L219.501 626.538L235.001 830.538L235.999 830.462ZM497.631 901.017L235.631 830.017L235.369 830.983L497.369 901.983L497.631 901.017ZM757.368 830.018L497.368 901.018L497.632 901.982L757.632 830.982L757.368 830.018ZM786.501 438.962L757.001 830.462L757.999 830.538L787.499 439.038L786.501 438.962ZM350.5 439.5H787V438.5H350.5V439.5ZM336.004 330.064L350.004 439.064L350.996 438.936L336.996 329.936L336.004 330.064ZM798.5 329.5H336.5V330.5H798.5V329.5Z" fill="#D92D00"/>
<path d="M491 177.5V67H888L815 939.5L492 1024L491 900L748 830.5L782.5 432H491V332.5L794 327.5L812 177.5H491Z" fill="#EB3E00" stroke="#EB3E00"/>
</svg>
