<svg width="309" height="358" viewBox="0 0 309 358" fill="none" xmlns="http://www.w3.org/2000/svg">
<path fill-rule="evenodd" clip-rule="evenodd" d="M27 319.5L1 1H308L282.5 319.5L156.5 357L27 319.5ZM148.5 67H110L109.5 245L46 227.5V271L148.5 300.5V67ZM168 65V207.5L225 203.5L222 242L168 255.5V294L257 272.5L268 155L211 160.5V107.5H271.5V65H168Z" fill="#F7D100"/>
<path d="M1 1V0.5H0.45752L0.501658 1.04068L1 1ZM27 319.5L26.5017 319.541L26.5297 319.884L26.8609 319.98L27 319.5ZM308 1L308.498 1.0399L308.542 0.5H308V1ZM282.5 319.5L282.643 319.979L282.971 319.881L282.998 319.54L282.5 319.5ZM156.5 357L156.361 357.48L156.502 357.521L156.643 357.479L156.5 357ZM110 67V66.5H109.501L109.5 66.9986L110 67ZM148.5 67H149V66.5H148.5V67ZM109.5 245L109.367 245.482L109.998 245.656L110 245.001L109.5 245ZM46 227.5L46.1328 227.018L45.5 226.844V227.5H46ZM46 271H45.5V271.376L45.8617 271.48L46 271ZM148.5 300.5L148.362 300.98L149 301.164V300.5H148.5ZM168 207.5H167.5V208.036L168.035 207.999L168 207.5ZM168 65V64.5H167.5V65H168ZM225 203.5L225.498 203.539L225.544 202.961L224.965 203.001L225 203.5ZM222 242L222.121 242.485L222.471 242.398L222.498 242.039L222 242ZM168 255.5L167.879 255.015L167.5 255.11V255.5H168ZM168 294H167.5V294.635L168.117 294.486L168 294ZM257 272.5L257.117 272.986L257.465 272.902L257.498 272.547L257 272.5ZM268 155L268.498 155.047L268.554 154.444L267.952 154.502L268 155ZM211 160.5H210.5V161.051L211.048 160.998L211 160.5ZM211 107.5V107H210.5V107.5H211ZM271.5 107.5V108H272V107.5H271.5ZM271.5 65H272V64.5H271.5V65ZM0.501658 1.04068L26.5017 319.541L27.4983 319.459L1.49834 0.959319L0.501658 1.04068ZM308 0.5H1V1.5H308V0.5ZM282.998 319.54L308.498 1.0399L307.502 0.960096L282.002 319.46L282.998 319.54ZM156.643 357.479L282.643 319.979L282.357 319.021L156.357 356.521L156.643 357.479ZM26.8609 319.98L156.361 357.48L156.639 356.52L27.1391 319.02L26.8609 319.98ZM110 67.5H148.5V66.5H110V67.5ZM110 245.001L110.5 67.0014L109.5 66.9986L109 244.999L110 245.001ZM45.8672 227.982L109.367 245.482L109.633 244.518L46.1328 227.018L45.8672 227.982ZM46.5 271V227.5H45.5V271H46.5ZM148.638 300.02L46.1383 270.52L45.8617 271.48L148.362 300.98L148.638 300.02ZM148 67V300.5H149V67H148ZM168.5 207.5V65H167.5V207.5H168.5ZM224.965 203.001L167.965 207.001L168.035 207.999L225.035 203.999L224.965 203.001ZM222.498 242.039L225.498 203.539L224.502 203.461L221.502 241.961L222.498 242.039ZM168.121 255.985L222.121 242.485L221.879 241.515L167.879 255.015L168.121 255.985ZM168.5 294V255.5H167.5V294H168.5ZM256.883 272.014L167.883 293.514L168.117 294.486L257.117 272.986L256.883 272.014ZM267.502 154.953L256.502 272.453L257.498 272.547L268.498 155.047L267.502 154.953ZM211.048 160.998L268.048 155.498L267.952 154.502L210.952 160.002L211.048 160.998ZM210.5 107.5V160.5H211.5V107.5H210.5ZM271.5 107H211V108H271.5V107ZM271 65V107.5H272V65H271ZM168 65.5H271.5V64.5H168V65.5Z" fill="#F7D100"/>
</svg>
