<svg width="329" height="374" viewBox="0 0 329 374" fill="none" xmlns="http://www.w3.org/2000/svg">
<path d="M8.5 85.0383C8.5 84.5383 1.5 89.0383 1.5 92.5383C1.5 96.0383 1 277.538 1 277.538C1 277.538 2.89115 282.5 4 280.538C5.10885 278.577 61.5 181.538 61.5 181.538C61.5 181.538 8.5 85.5383 8.5 85.0383Z" fill="#40A031" stroke="#409F31"/>
<path d="M61.5 182C61.5 182 4.49999 281 3.99999 282C3.49999 283 157.5 372.5 157.5 372.5H166.5L61.5 182Z" fill="#41873F" stroke="#41873F"/>
<path d="M167.5 372.5L9 85L154.5 1.5L169 1L328 272C328 272 327 280 324.5 283C322 286 173.5 371 171.5 372C169.5 373 167.5 372.5 167.5 372.5Z" fill="#58A645" stroke="#58A645"/>
<path d="M173.5 1.5H170L274.5 179.5C274.5 179.5 322 93.5 324 90.5C326 87.5 173.5 1.5 173.5 1.5Z" fill="#4D9842" stroke="#4D9842"/>
<path d="M275 180L328 271V99C328 94 324.5 90.5 324.5 90.5L275 180Z" fill="#41893E" stroke="#41893E"/>
</svg>
