<svg width="346" height="345" viewBox="0 0 346 345" fill="none" xmlns="http://www.w3.org/2000/svg">
<path d="M171.757 0C83.9158 0 89.3977 38.0924 89.3977 38.0924L89.5059 77.5581H173.324V89.3977H56.1926C56.1926 89.3977 0 83.0184 0 171.659C0 260.278 49.0563 257.143 49.0563 257.143H78.3366V216.012C78.3366 216.012 76.7579 166.956 126.614 166.956H209.741C209.741 166.956 256.451 167.713 256.451 121.814V45.9207C256.451 45.9207 263.544 0 171.757 0ZM125.533 26.5339C133.87 26.5339 140.617 33.2809 140.617 41.6173C140.617 49.9538 133.87 56.7007 125.533 56.7007C123.552 56.7036 121.589 56.3154 119.758 55.5584C117.926 54.8014 116.262 53.6904 114.861 52.2893C113.46 50.8881 112.349 49.2241 111.592 47.3929C110.835 45.5616 110.447 43.5989 110.45 41.6173C110.45 33.2809 117.197 26.5339 125.533 26.5339Z" fill="url(#paint0_linear_2_5)"/>
<path d="M174.243 344.194C262.084 344.194 256.602 306.102 256.602 306.102L256.494 266.636H172.676V254.797H289.797C289.797 254.797 346 261.176 346 172.546C346 83.9158 296.944 87.0623 296.944 87.0623H267.663V128.182C267.663 128.182 269.242 177.238 219.386 177.238H136.259C136.259 177.238 89.5491 176.482 89.5491 222.381V298.274C89.5491 298.274 82.4561 344.194 174.243 344.194ZM220.467 317.66C218.485 317.663 216.523 317.275 214.691 316.518C212.86 315.761 211.196 314.65 209.795 313.249C208.394 311.848 207.283 310.184 206.526 308.353C205.769 306.521 205.381 304.559 205.383 302.577C205.383 294.251 212.13 287.504 220.467 287.504C228.803 287.504 235.55 294.241 235.55 302.577C235.55 310.924 228.803 317.66 220.467 317.66Z" fill="url(#paint1_linear_2_5)"/>
<defs>
<linearGradient id="paint0_linear_2_5" x1="33.2484" y1="30.0804" x2="204.335" y2="201.74" gradientUnits="userSpaceOnUse">
<stop stop-color="#387EB8"/>
<stop offset="1" stop-color="#366994"/>
</linearGradient>
<linearGradient id="paint1_linear_2_5" x1="138.497" y1="139.287" x2="322.245" y2="315.325" gradientUnits="userSpaceOnUse">
<stop stop-color="#FFE052"/>
<stop offset="1" stop-color="#FFC331"/>
</linearGradient>
</defs>
</svg>
